<svg xmlns="http://www.w3.org/2000/svg" width="165" height="32" viewBox="0 0 165 32" role="img" aria-label="Retask Docs">
  <g transform="translate(0 2) scale(0.02734)">
    <g style="mix-blend-mode:multiply">
      <path d="M64 320a64.021333 64.021333 0 0 1 0-128h64c81.92 0 155.904 31.744 212.48 82.432a378.624 378.624 0 0 0-63.488 117.824C241.792 348.544 188.48 320 128 320H64z" fill="#49BEFF"/>
      <path d="M877.248 594.688l128 128c12.48 12.48 18.752 28.864 18.752 45.248s-6.272 32.768-18.752 45.248l-128 128a64.106667 64.106667 0 0 1-69.76 13.888A64.042667 64.042667 0 0 1 768 895.936V832h-128c-81.92 0-155.904-31.68-212.544-82.368a380.416 380.416 0 0 0 63.552-117.888C526.208 675.52 579.52 704 640 704h128v-64.064c0-25.856 15.616-49.28 39.488-59.136a64.213333 64.213333 0 0 1 69.76 13.888z" fill="#87BFFF"/>
    </g>
    <path d="M640 320a192 192 0 0 0-192 192c0 176.768-143.296 320-320 320H64a64 64 0 1 1 0-128h64a192 192 0 0 0 192-192c0-176.704 143.296-320 320-320h128V127.936c0-25.856 15.616-49.28 39.488-59.136a64.213333 64.213333 0 0 1 69.76 13.888l128 128c12.48 12.48 18.752 28.864 18.752 45.248s-6.272 32.768-18.752 45.248l-128 128a64.106667 64.106667 0 0 1-69.76 13.888A64.042667 64.042667 0 0 1 768 383.936V320h-128z" fill="#2442AF"/>
  </g>
  <g transform="translate(40 22) scale(0.02 -0.02)" fill="#2442AF">
<path transform="translate(0 0)" d="M66 0V745H351Q428 745 487.5 718.0Q547 691 581.0 638.0Q615 585 615 507Q615 431 580.0 377.5Q545 324 486 297L656 0H482L298 329L398 270H221V0ZM221 405H352Q385 405 409.0 418.0Q433 431 446.5 454.0Q460 477 460 507Q460 538 446.5 561.0Q433 584 409.0 597.0Q385 610 352 610H221Z"/>
<path transform="translate(647 0)" d="M318 -12Q231 -12 167.0 26.5Q103 65 68.0 130.0Q33 195 33 274Q33 356 69.5 420.0Q106 484 168.0 521.0Q230 558 308 558Q373 558 423.0 537.5Q473 517 507.5 480.0Q542 443 560.0 394.5Q578 346 578 289Q578 273 576.5 257.5Q575 242 571 231H162V341H486L415 289Q425 332 414.0 365.5Q403 399 375.5 418.5Q348 438 308 438Q269 438 241.0 419.0Q213 400 199.0 363.0Q185 326 188 273Q184 227 199.0 192.0Q214 157 245.0 137.5Q276 118 320 118Q360 118 388.5 134.0Q417 150 433 178L553 121Q537 81 502.5 51.0Q468 21 421.0 4.5Q374 -12 318 -12Z"/>
<path transform="translate(1238 0)" d="M318 -6Q219 -6 164.5 47.5Q110 101 110 197V416H18V546H23Q65 546 87.5 567.0Q110 588 110 630V670H260V546H388V416H260V207Q260 179 270.0 160.5Q280 142 301.0 133.0Q322 124 353 124Q360 124 369.0 125.0Q378 126 388 127V0Q373 -2 354.0 -4.0Q335 -6 318 -6Z"/>
<path transform="translate(1639 0)" d="M224 -12Q165 -12 122.0 7.0Q79 26 56.0 61.5Q33 97 33 146Q33 192 54.0 227.5Q75 263 118.5 287.0Q162 311 227 321L394 348V238L254 213Q222 207 205.0 192.5Q188 178 188 151Q188 126 207.0 112.0Q226 98 254 98Q291 98 319.0 114.0Q347 130 362.5 157.5Q378 185 378 218V360Q378 391 353.5 412.0Q329 433 287 433Q247 433 216.5 411.0Q186 389 172 353L52 410Q68 456 103.0 489.0Q138 522 187.0 540.0Q236 558 294 558Q363 558 416.0 533.0Q469 508 498.5 463.5Q528 419 528 360V0H388V88L422 94Q398 58 369.0 34.5Q340 11 304.0 -0.5Q268 -12 224 -12Z"/>
<path transform="translate(2202 0)" d="M269 -12Q179 -12 112.5 30.5Q46 73 22 145L132 197Q153 153 189.0 128.0Q225 103 269 103Q301 103 318.0 116.0Q335 129 335 152Q335 164 329.0 172.5Q323 181 311.0 188.0Q299 195 281 200L188 226Q121 245 85.0 287.5Q49 330 49 388Q49 439 75.0 477.0Q101 515 148.0 536.5Q195 558 256 558Q336 558 396.5 520.5Q457 483 482 415L371 363Q359 397 327.5 417.5Q296 438 256 438Q227 438 210.5 426.0Q194 414 194 393Q194 382 200.0 373.0Q206 364 219.5 357.0Q233 350 253 344L340 318Q408 298 444.0 257.5Q480 217 480 158Q480 107 453.5 69.0Q427 31 380.0 9.5Q333 -12 269 -12Z"/>
<path transform="translate(2697 0)" d="M55 0V757H205V272L149 290L390 546H575L377 326L574 0H404L239 277L326 299L159 117L205 204V0Z"/>
  </g>
  <g transform="translate(111.66 22) scale(0.02 -0.02)" fill="#6B7280">
<path transform="translate(0 0)" d="M77 0V745H321Q436.8436363636364 745 522.4218181818183 698.25Q608 651.5 655.0 567.75Q702 484 702 372.7621145374449Q702 262.5 655.0 178.25Q608 94 522.4218181818183 47.0Q436.8436363636364 0 321 0ZM194.5 105H323Q402.3066037735849 105 460.40330188679246 138.0Q518.5 171 550.5 231.21518987341773Q582.5 291.43037974683546 582.5 373.2151898734177Q582.5 455 550.2678571428571 514.7208737864078Q518.0357142857143 574.4417475728155 460.01785714285717 607.2208737864078Q402 640 323 640H194.5Z"/>
<path transform="translate(721 0)" d="M327 -12Q248.5 -12 184.25 24.75Q120 61.5 82.0 125.5Q44 189.5 44 271Q44 352.5 81.75 416.0Q119.5 479.5 183.5 516.25Q247.5 553 327 553Q406.5 553 470.25 516.5Q534 480 571.5 416.5Q609 353 609 271Q609 189 570.75 125.0Q532.5 61 468.75 24.5Q405 -12 327 -12ZM327 93Q374.5 93 411.5 116.0Q448.5 139 470.0 179.5Q491.5 220 491.5 271Q491.5 322 470.0 361.75Q448.5 401.5 411.5 424.75Q374.5 448 327 448Q279.5 448 242.25 424.75Q205 401.5 183.25 361.75Q161.5 322 161.5 271Q161.5 220 183.25 179.5Q205 139 242.25 116.0Q279.5 93 327 93Z"/>
<path transform="translate(1354 0)" d="M322.5 -12Q242 -12 179.25 25.25Q116.5 62.5 80.25 126.75Q44 191 44 271.5Q44 352 80.0 415.75Q116 479.5 179.0 516.25Q242 553 322.5 553Q378 553 426.0 533.5Q474 514 509.5 480.0Q545 446 561.5 400.5L462.5 355Q445.5 397 408.25 422.5Q371 448 322.5 448Q276.5 448 240.0 425.25Q203.5 402.5 182.5 362.25Q161.5 322 161.5 270.5Q161.5 219.5 182.5 179.25Q203.5 139 240.0 116.0Q276.5 93 322.5 93Q371.5 93 408.25 118.5Q445 144 462.5 187L561.5 140Q545.5 96.5 510.0 62.0Q474.5 27.5 426.5 7.75Q378.5 -12 322.5 -12Z"/>
<path transform="translate(1940 0)" d="M266 -12Q182.5 -12 120.25 28.75Q58 69.5 33 139L119.5 180Q141.5 133.5 180.25 106.5Q219 79.5 266 79.5Q306 79.5 331.0 97.75Q356 116 356 146.5Q356 166.5 345.0 179.0Q334 191.5 317.5 199.5Q301 207.5 284 212L199 236Q128.5 256 94.0 296.25Q59.5 336.5 59.5 390.5Q59.5 439.5 84.5 476.0Q109.5 512.5 153.5 532.75Q197.5 553 253 553Q327 553 385.0 516.5Q443 480 467 414.5L379.5 373.5Q363.5 413 329.0 436.0Q294.5 459 251.5 459Q214.5 459 192.75 441.5Q171 424 171 396Q171 377 181.0 364.5Q191 352 207.0 344.5Q223 337 240 332L328 306Q394.5 286.5 430.75 246.25Q467 206 467 149.5Q467 102 441.5 65.5Q416 29 371.0 8.5Q326 -12 266 -12Z"/>
  </g>
</svg>
