<svg xmlns="http://www.w3.org/2000/svg" width="172" height="32" viewBox="0 0 172 32" role="img" aria-label="Retask Docs">
  <g transform="translate(0 2) scale(0.02734)">
    <g style="mix-blend-mode:multiply">
      <path d="M64 320a64.021333 64.021333 0 0 1 0-128h64c81.92 0 155.904 31.744 212.48 82.432a378.624 378.624 0 0 0-63.488 117.824C241.792 348.544 188.48 320 128 320H64z" fill="#49BEFF"/>
      <path d="M877.248 594.688l128 128c12.48 12.48 18.752 28.864 18.752 45.248s-6.272 32.768-18.752 45.248l-128 128a64.106667 64.106667 0 0 1-69.76 13.888A64.042667 64.042667 0 0 1 768 895.936V832h-128c-81.92 0-155.904-31.68-212.544-82.368a380.416 380.416 0 0 0 63.552-117.888C526.208 675.52 579.52 704 640 704h128v-64.064c0-25.856 15.616-49.28 39.488-59.136a64.213333 64.213333 0 0 1 69.76 13.888z" fill="#87BFFF"/>
    </g>
    <path d="M640 320a192 192 0 0 0-192 192c0 176.768-143.296 320-320 320H64a64 64 0 1 1 0-128h64a192 192 0 0 0 192-192c0-176.704 143.296-320 320-320h128V127.936c0-25.856 15.616-49.28 39.488-59.136a64.213333 64.213333 0 0 1 69.76 13.888l128 128c12.48 12.48 18.752 28.864 18.752 45.248s-6.272 32.768-18.752 45.248l-128 128a64.106667 64.106667 0 0 1-69.76 13.888A64.042667 64.042667 0 0 1 768 383.936V320h-128z" fill="#2442AF"/>
  </g>
  <text x="40" y="22" font-family="'Plus Jakarta Sans', system-ui, -apple-system, sans-serif" font-size="20" font-weight="800" letter-spacing="-0.4">
    <tspan fill="#2442AF">Retask</tspan><tspan dx="6" font-weight="600" fill="#6B7280">Docs</tspan>
  </text>
</svg>
