<svg xmlns="http://www.w3.org/2000/svg" width="164" height="32" viewBox="0 0 164 32" role="img" aria-label="Retask Docs">
  <g transform="translate(0 2) scale(0.02734)">
    <path d="M64 320a64.021333 64.021333 0 0 1 0-128h64c81.92 0 155.904 31.744 212.48 82.432a378.624 378.624 0 0 0-63.488 117.824C241.792 348.544 188.48 320 128 320H64z" fill="#49BEFF"/>
    <path d="M877.248 594.688l128 128c12.48 12.48 18.752 28.864 18.752 45.248s-6.272 32.768-18.752 45.248l-128 128a64.106667 64.106667 0 0 1-69.76 13.888A64.042667 64.042667 0 0 1 768 895.936V832h-128c-81.92 0-155.904-31.68-212.544-82.368a380.416 380.416 0 0 0 63.552-117.888C526.208 675.52 579.52 704 640 704h128v-64.064c0-25.856 15.616-49.28 39.488-59.136a64.213333 64.213333 0 0 1 69.76 13.888z" fill="#9DBEFF"/>
    <path d="M640 320a192 192 0 0 0-192 192c0 176.768-143.296 320-320 320H64a64 64 0 1 1 0-128h64a192 192 0 0 0 192-192c0-176.704 143.296-320 320-320h128V127.936c0-25.856 15.616-49.28 39.488-59.136a64.213333 64.213333 0 0 1 69.76 13.888l128 128c12.48 12.48 18.752 28.864 18.752 45.248s-6.272 32.768-18.752 45.248l-128 128a64.106667 64.106667 0 0 1-69.76 13.888A64.042667 64.042667 0 0 1 768 383.936V320h-128z" fill="#9DBEFF"/>
  </g>
  <g transform="translate(40 22) scale(0.02 -0.02)" fill="#FFFFFF">
<path transform="translate(0 0)" d="M71.5 0V745H349.25Q425.25 745 483.625 717.625Q542 690.25 575.125 637.625Q608.25 585 608.25 509.5Q608.25 432.75 571.625 378.625Q535 324.5 473 298.5L644 0H490L306.5 327L395 275H207.75V0ZM207.75 395H351Q387.75 395 414.75 409.375Q441.75 423.75 456.875 449.625Q472 475.5 472 509.75Q472 544.75 456.875 570.5Q441.75 596.25 414.75 610.625Q387.75 625 351 625H207.75Z"/>
<path transform="translate(641 0)" d="M318.75 -12Q234.75 -12 171.625 26.0Q108.5 64 73.5 128.75Q38.5 193.5 38.5 273Q38.5 354.75 74.375 418.375Q110.25 482 171.375 518.75Q232.5 555.5 309.25 555.5Q372.5 555.5 421.375 534.75Q470.25 514 504.125 477.125Q538 440.25 555.75 392.5Q573.5 344.75 573.5 290Q573.5 275.5 572.125 260.75Q570.75 246 567.25 234.5H147.25V334.5H492.75L430.5 288Q440.25 334 426.625 370.0Q413 406 382.375 427.0Q351.75 448 309.25 448Q267.5 448 235.875 427.25Q204.25 406.5 187.75 367.125Q171.25 327.75 174.75 272Q170.5 221.5 188.125 183.375Q205.75 145.25 240.125 124.125Q274.5 103 320.25 103Q365 103 396.375 122.0Q427.75 141 446 172.5L552 121.25Q536 82.25 501.875 52.125Q467.75 22 421.125 5.0Q374.5 -12 318.75 -12Z"/>
<path transform="translate(1233 0)" d="M309 -6Q216.75 -6 166.125 44.625Q115.5 95.25 115.5 186.75V427.25H21.75V543.5H31.75Q71.75 543.5 93.625 564.875Q115.5 586.25 115.5 626.25V667.5H246.75V543.5H372.25V427.25H246.75V194.25Q246.75 166.5 256.25 147.5Q265.75 128.5 286.375 118.75Q307 109 338.5 109Q345.75 109 355.25 110.0Q364.75 111 374.25 112V0Q360 -2.25 342.0 -4.125Q324 -6 309 -6Z"/>
<path transform="translate(1626 0)" d="M226 -12Q169 -12 126.75 7.125Q84.5 26.25 61.5 61.375Q38.5 96.5 38.5 144.25Q38.5 189.25 58.75 224.5Q79 259.75 121.125 283.75Q163.25 307.75 226.75 317.75L404.5 346.75V247.25L251.5 220.5Q213 213.5 193.875 195.875Q174.75 178.25 174.75 148.75Q174.75 121 196.125 104.25Q217.5 87.5 249.75 87.5Q291.25 87.5 322.5 105.375Q353.75 123.25 371.125 153.875Q388.5 184.5 388.5 221.5V362Q388.5 397.25 361.375 420.5Q334.25 443.75 288.75 443.75Q246.5 443.75 214.375 421.125Q182.25 398.5 167.25 361.75L60.25 413.75Q76 456.75 110.375 488.5Q144.75 520.25 192.0 537.875Q239.25 555.5 294 555.5Q360.5 555.5 411.625 531.0Q462.75 506.5 491.25 463.0Q519.75 419.5 519.75 362V0H396V92.75L424.25 94.5Q402.75 60 373.625 36.25Q344.5 12.5 307.625 0.25Q270.75 -12 226 -12Z"/>
<path transform="translate(2186 0)" d="M267.5 -12Q180.75 -12 116.375 29.625Q52 71.25 27.5 142L125.75 188.5Q147.25 143.25 184.625 117.25Q222 91.25 267.5 91.25Q303.5 91.25 324.5 106.875Q345.5 122.5 345.5 149.25Q345.5 165.25 337.0 175.75Q328.5 186.25 314.25 193.75Q300 201.25 282.5 206L193.5 231Q124.75 250.5 89.5 291.875Q54.25 333.25 54.25 389.25Q54.25 439.25 79.75 476.5Q105.25 513.75 150.75 534.625Q196.25 555.5 254.5 555.5Q331.5 555.5 390.75 518.5Q450 481.5 474.5 414.75L375.25 368.25Q361.25 405 328.25 426.75Q295.25 448.5 253.75 448.5Q220.75 448.5 201.625 433.75Q182.5 419 182.5 394.5Q182.5 379.5 190.5 368.75Q198.5 358 213.25 350.75Q228 343.5 246.5 338L334 312Q401.25 292.25 437.375 251.875Q473.5 211.5 473.5 153.75Q473.5 104.5 447.5 67.25Q421.5 30 375.5 9.0Q329.5 -12 267.5 -12Z"/>
<path transform="translate(2680 0)" d="M60.5 0V757H191.75V260.75L141.75 275.5L397.75 543.5H560.75L359.75 324.75L564.75 0H414.75L237.25 282L314.5 297.5L151 121.5L191.75 202.25V0Z"/>
  </g>
  <g transform="translate(111.14 22) scale(0.02 -0.02)" fill="#94A3B8">
<path transform="translate(0 0)" d="M77 0V745H321Q436.8436363636364 745 522.4218181818183 698.25Q608 651.5 655.0 567.75Q702 484 702 372.7621145374449Q702 262.5 655.0 178.25Q608 94 522.4218181818183 47.0Q436.8436363636364 0 321 0ZM194.5 105H323Q402.3066037735849 105 460.40330188679246 138.0Q518.5 171 550.5 231.21518987341773Q582.5 291.43037974683546 582.5 373.2151898734177Q582.5 455 550.2678571428571 514.7208737864078Q518.0357142857143 574.4417475728155 460.01785714285717 607.2208737864078Q402 640 323 640H194.5Z"/>
<path transform="translate(721 0)" d="M327 -12Q248.5 -12 184.25 24.75Q120 61.5 82.0 125.5Q44 189.5 44 271Q44 352.5 81.75 416.0Q119.5 479.5 183.5 516.25Q247.5 553 327 553Q406.5 553 470.25 516.5Q534 480 571.5 416.5Q609 353 609 271Q609 189 570.75 125.0Q532.5 61 468.75 24.5Q405 -12 327 -12ZM327 93Q374.5 93 411.5 116.0Q448.5 139 470.0 179.5Q491.5 220 491.5 271Q491.5 322 470.0 361.75Q448.5 401.5 411.5 424.75Q374.5 448 327 448Q279.5 448 242.25 424.75Q205 401.5 183.25 361.75Q161.5 322 161.5 271Q161.5 220 183.25 179.5Q205 139 242.25 116.0Q279.5 93 327 93Z"/>
<path transform="translate(1354 0)" d="M322.5 -12Q242 -12 179.25 25.25Q116.5 62.5 80.25 126.75Q44 191 44 271.5Q44 352 80.0 415.75Q116 479.5 179.0 516.25Q242 553 322.5 553Q378 553 426.0 533.5Q474 514 509.5 480.0Q545 446 561.5 400.5L462.5 355Q445.5 397 408.25 422.5Q371 448 322.5 448Q276.5 448 240.0 425.25Q203.5 402.5 182.5 362.25Q161.5 322 161.5 270.5Q161.5 219.5 182.5 179.25Q203.5 139 240.0 116.0Q276.5 93 322.5 93Q371.5 93 408.25 118.5Q445 144 462.5 187L561.5 140Q545.5 96.5 510.0 62.0Q474.5 27.5 426.5 7.75Q378.5 -12 322.5 -12Z"/>
<path transform="translate(1940 0)" d="M266 -12Q182.5 -12 120.25 28.75Q58 69.5 33 139L119.5 180Q141.5 133.5 180.25 106.5Q219 79.5 266 79.5Q306 79.5 331.0 97.75Q356 116 356 146.5Q356 166.5 345.0 179.0Q334 191.5 317.5 199.5Q301 207.5 284 212L199 236Q128.5 256 94.0 296.25Q59.5 336.5 59.5 390.5Q59.5 439.5 84.5 476.0Q109.5 512.5 153.5 532.75Q197.5 553 253 553Q327 553 385.0 516.5Q443 480 467 414.5L379.5 373.5Q363.5 413 329.0 436.0Q294.5 459 251.5 459Q214.5 459 192.75 441.5Q171 424 171 396Q171 377 181.0 364.5Q191 352 207.0 344.5Q223 337 240 332L328 306Q394.5 286.5 430.75 246.25Q467 206 467 149.5Q467 102 441.5 65.5Q416 29 371.0 8.5Q326 -12 266 -12Z"/>
  </g>
</svg>
